<?xml version="1.0" standalone="no"?>
<!DOCTYPE svg PUBLIC "-//W3C//DTD SVG 20010904//EN"
 "http://www.w3.org/TR/2001/REC-SVG-20010904/DTD/svg10.dtd">
<svg version="1.0" xmlns="http://www.w3.org/2000/svg"
 width="100%" height="100%" viewBox="0 0 280 280" >

<g transform="translate(-105,410) scale(0.1,-0.1)"
fill="#64ffda" stroke="#0a192f">
<path d="M1578 3330 c-45 -11 -48 -31 -48 -420 1 -201 5 -421 10 -489 8 -117
11 -130 50 -207 46 -95 91 -138 192 -190 80 -40 171 -64 249 -61 18 0 311 70
317 117 2 12 -11 39 -31 66 -18 24 -46 74 -61 110 -16 36 -35 68 -43 71 -8 4
-28 -3 -45 -15 -75 -54 -171 -56 -249 -4 -74 48 -73 45 -79 552 -4 322 -8 455
-17 464 -12 12 -203 19 -245 9z m233 -470 c7 -479 8 -490 62 -548 73 -79 211
-92 300 -30 16 11 30 19 32 17 2 -2 15 -30 29 -63 14 -32 42 -80 62 -108 20
-27 35 -50 33 -52 -14 -13 -113 -57 -158 -70 -68 -20 -198 -21 -270 -1 -124
33 -243 120 -291 214 -45 89 -50 146 -50 627 0 248 3 454 7 458 4 3 59 5 122
4 l116 -3 6"/>
<path d="M3056 3332 c-55 -1 -105 -7 -111 -12 -9 -7 -14 -141 -19 -467 -8
-491 -9 -501 -61 -541 -59 -47 -181 -54 -248 -15 -54 32 -69 71 -78 207 -9
145 -26 204 -81 286 -65 98 -159 164 -275 194 -74 19 -236 22 -251 4 -15 -20
-22 -242 -8 -270 11 -21 19 -23 91 -24 87 -1 136 -17 172 -56 33 -35 43 -72
43 -157 0 -165 42 -275 142 -374 102 -101 198 -137 364 -137 175 0 307 60 398
181 71 94 86 148 97 334 12 214 1 816 -14 831 -17 16 -49 20 -161 16z m142
-34 c16 -16 17 -832 1 -928 -42 -264 -287 -422 -575 -369 -166 30 -309 163
-354 329 -7 25 -15 98 -19 162 -8 135 -18 156 -92 198 -34 19 -62 25 -131 28
l-88 4 0 117 c0 78 4 121 12 129 16 16 118 15 201 -3 140 -29 259 -123 319
-251 26 -56 32 -84 40 -187 12 -150 22 -188 62 -225 40 -38 84 -52 163 -52 68
0 124 18 161 52 48 46 52 88 52 559 0 341 3 438 13 442 27 11 223 7 235 -5z"/>
<path d="M2581 2984 c-71 -19 -149 -62 -157 -86 -4 -13 4 -35 25 -63 17 -24
42 -66 55 -94 40 -88 58 -96 132 -65 22 9 72 18 112 20 41 1 80 8 88 15 21 18
20 251 -2 273 -20 21 -176 21 -253 0z m236 -18 c13 -13 16 -201 4 -225 -10
-18 -21 -21 -74 -21 -35 -1 -86 -9 -117 -20 -30 -11 -59 -19 -63 -20 -4 0 -19
25 -33 56 -14 31 -38 76 -55 100 -16 23 -29 47 -29 53 0 16 96 61 164 77 63
14 189 14 203 0z"/>
</g>
</svg>
